# xmcd
#
# Track frame offsets: 
#        150
#        21675
#        41925
#        61937
#        83762
#        100637
#        120450
#        138200
#        158725
#        182837
#        206512
#        224150
#
# Disc length: 3208 seconds
#
# Revision: 0
# Processed by: cddbd v1.5PL3 Copyright (c) Steve Scherf et al.
# Submitted via: ExactAudioCopy v0.95a4
#
DISCID=ab0c860c
DTITLE=林志炫 - 蒙娜丽莎的眼泪
DYEAR=1998
DGENRE=Pop
TTITLE0=Coming Home
TTITLE1=蒙娜丽莎的眼泪
TTITLE2=蜘蛛
TTITLE3=我的眼留下你的泪
TTITLE4=这就是爱
TTITLE5=拆穿
TTITLE6=给你一些不给一些
TTITLE7=Miss Mama
TTITLE8=互动
TTITLE9=多一点少一点
TTITLE10=冬
TTITLE11=总有
EXTD=
EXTT0=
EXTT1=
EXTT2=
EXTT3=
EXTT4=
EXTT5=
EXTT6=
EXTT7=
EXTT8=
EXTT9=
EXTT10=
EXTT11=
PLAYORDER=
